<svg id="Capa_1" enable-background="new 0 0 512 512" height="512" viewBox="0 0 512 512" width="512" xmlns="http://www.w3.org/2000/svg"><g><path d="m45 466h422c24.813 0 45-20.187 45-45v-330c0-24.813-20.187-45-45-45h-422c-24.813 0-45 20.187-45 45v330c0 24.813 20.187 45 45 45zm-15-375c0-8.271 6.729-15 15-15h422c8.271 0 15 6.729 15 15v330c0 8.271-6.729 15-15 15h-422c-8.271 0-15-6.729-15-15z"/><path d="m75 376h18.58c6.192 17.458 22.865 30 42.42 30s36.228-12.542 42.42-30h258.58c8.284 0 15-6.716 15-15s-6.716-15-15-15h-258.58c-6.192-17.458-22.865-30-42.42-30s-36.228 12.542-42.42 30h-18.58c-8.284 0-15 6.716-15 15s6.716 15 15 15zm61-30c8.271 0 15 6.729 15 15s-6.729 15-15 15-15-6.729-15-15 6.729-15 15-15z"/><path d="m188.114 283.76c4.43 2.738 9.954 2.977 14.594.657l120-60c5.082-2.542 8.292-7.735 8.292-13.417s-3.21-10.875-8.292-13.417l-120-60c-4.649-2.325-10.172-2.077-14.594.657-4.422 2.733-7.114 7.561-7.114 12.76v120c0 5.199 2.692 10.027 7.114 12.76zm22.886-108.489 71.459 35.729-71.459 35.729z"/></g></svg>