<?xml version="1.0" encoding="UTF-8" standalone="no"?>
<!-- Created with Inkscape (http://www.inkscape.org/) -->

<svg
   xmlns:dc="http://purl.org/dc/elements/1.1/"
   xmlns:cc="http://creativecommons.org/ns#"
   xmlns:rdf="http://www.w3.org/1999/02/22-rdf-syntax-ns#"
   xmlns:svg="http://www.w3.org/2000/svg"
   xmlns="http://www.w3.org/2000/svg"
   xmlns:sodipodi="http://sodipodi.sourceforge.net/DTD/sodipodi-0.dtd"
   xmlns:inkscape="http://www.inkscape.org/namespaces/inkscape"
   width="429.35086"
   height="429.35086"
   id="svg4255"
   version="1.1"
   inkscape:version="0.48.4 r9939"
   sodipodi:docname="New document 30">
  <defs
     id="defs4257">
    <inkscape:perspective
       sodipodi:type="inkscape:persp3d"
       inkscape:vp_x="0 : 0.5 : 1"
       inkscape:vp_y="0 : 1000 : 0"
       inkscape:vp_z="1 : 0.5 : 1"
       inkscape:persp3d-origin="0.5 : 0.33333333 : 1"
       id="perspective2879" />
    <inkscape:perspective
       id="perspective10"
       inkscape:persp3d-origin="372.04724 : 350.78739 : 1"
       inkscape:vp_z="744.09448 : 526.18109 : 1"
       inkscape:vp_y="0 : 1000 : 0"
       inkscape:vp_x="0 : 526.18109 : 1"
       sodipodi:type="inkscape:persp3d" />
  </defs>
  <sodipodi:namedview
     id="base"
     pagecolor="#ffffff"
     bordercolor="#666666"
     borderopacity="1.0"
     inkscape:pageopacity="0.0"
     inkscape:pageshadow="2"
     inkscape:zoom="0.35"
     inkscape:cx="277.71387"
     inkscape:cy="151.91877"
     inkscape:document-units="px"
     inkscape:current-layer="layer1"
     showgrid="false"
     fit-margin-top="0"
     fit-margin-left="0"
     fit-margin-right="0"
     fit-margin-bottom="0"
     inkscape:window-width="1280"
     inkscape:window-height="749"
     inkscape:window-x="0"
     inkscape:window-y="26"
     inkscape:window-maximized="1" />
  <metadata
     id="metadata4260">
    <rdf:RDF>
      <cc:Work
         rdf:about="">
        <dc:format>image/svg+xml</dc:format>
        <dc:type
           rdf:resource="http://purl.org/dc/dcmitype/StillImage" />
        <dc:title></dc:title>
      </cc:Work>
    </rdf:RDF>
  </metadata>
  <g
     inkscape:label="Layer 1"
     inkscape:groupmode="layer"
     id="layer1"
     transform="translate(-97.286134,-254.93009)">
    <path
       style="font-size:medium;font-style:normal;font-variant:normal;font-weight:normal;font-stretch:normal;text-indent:0;text-align:start;text-decoration:none;line-height:normal;letter-spacing:normal;word-spacing:normal;text-transform:none;direction:ltr;block-progression:tb;writing-mode:lr-tb;text-anchor:start;color:#000000;fill:#000000;fill-opacity:1;stroke:none;stroke-width:1.5;marker:none;visibility:visible;display:inline;overflow:visible;enable-background:accumulate;font-family:Bitstream Vera Sans;-inkscape-font-specification:Bitstream Vera Sans"
       d="m 311.88754,280.64438 c -104.32557,0 -188.88712,84.56156 -188.88712,188.88713 0,104.32556 84.56155,189.03515 188.88712,189.03515 104.32557,0 189.03515,-84.70959 189.03515,-189.03515 0,-104.32557 -84.70958,-188.88713 -189.03515,-188.88713 z m 18.20777,7.99366 c 36.68503,3.62985 70.12404,18.14524 97.10811,40.26434 l -35.52736,0 c -17.5164,-18.27873 -38.42293,-32.17149 -61.58075,-40.26434 z m -38.636,0.29606 c -22.82652,8.1217 -43.5466,21.92166 -60.8406,39.96828 l -33.89902,0 c 26.39782,-21.62389 58.97262,-35.98187 94.73962,-39.96828 z m 15.83928,3.99683 0,35.97145 -37.45176,0 c 10.93348,-17.25175 23.72167,-29.68979 37.45176,-35.97145 z m 7.54956,0.14779 c 13.69466,6.29493 26.55751,18.63818 37.45176,35.82342 l -37.45176,0 0,-35.82342 z m 23.38885,6.80941 c 15.6758,6.94252 30.1119,16.84509 42.92889,29.01401 l -20.42823,0 C 354.03232,317.43846 346.52951,307.60221 338.237,299.88813 z m -54.91938,0.44386 c -8.10777,7.64165 -15.47463,17.33318 -22.05657,28.56992 l -19.98413,0 c 12.57526,-11.93521 26.70501,-21.6517 42.0407,-28.56992 z m -94.88765,35.67539 35.82342,0 c -14.1938,16.51382 -25.73232,36.05515 -33.89902,57.73195 l -43.81708,0 c 10.05628,-21.91038 24.42042,-41.56985 41.89268,-57.73195 z m 45.74147,0 23.09279,0 c -2.0614,3.93212 -4.05041,8.02766 -5.92123,12.28654 -5.99399,13.64525 -10.88847,28.94793 -14.65504,45.44541 l -38.636,0 c 8.69554,-21.98726 21.05029,-41.59841 36.11948,-57.73195 z m 31.3825,0 41.74465,0 0,57.73195 -63.35712,0 c 3.62829,-15.46657 8.31477,-29.73625 13.91488,-42.4848 2.38933,-5.43923 5.00244,-10.43713 7.69759,-15.24715 z m 49.29421,0 41.59662,0 c 2.69373,4.80614 5.30722,9.80545 7.69759,15.24715 5.60011,12.74855 10.25803,27.01823 13.91488,42.4848 l -63.20909,0 0,-57.73195 z m 49.88633,0 23.53688,0 c 15.0581,16.13685 27.28179,35.74796 35.97145,57.73195 l -38.93206,0 c -3.79613,-16.49355 -8.66228,-31.80295 -14.65504,-45.44541 -1.87504,-4.26849 -3.85566,-8.345 -5.92123,-12.28654 z m 33.3069,0 37.30373,0 c 17.54928,16.19967 31.94966,35.75241 42.04071,57.73195 l -45.29739,0 c -8.18038,-21.69357 -19.83028,-41.20477 -34.04705,-57.73195 z m -254.4647,64.83743 44.26117,0 c -6.79577,20.26025 -10.74116,42.18783 -11.1023,65.13349 l -46.62966,0 c 0.44101,-23.02576 5.25028,-44.98209 13.47079,-65.13349 z m 51.81073,0 39.82025,0 c -4.11805,20.2639 -6.44192,42.17514 -6.66138,65.13349 l -44.70526,0 c 0.37848,-23.06242 4.489,-45.02743 11.54639,-65.13349 z m 47.07375,0 64.83743,0 0,65.13349 -71.64684,0 c 0.22738,-23.02415 2.6079,-44.99758 6.80941,-65.13349 z m 72.38699,0 64.6894,0 c 4.23913,20.13591 6.72614,42.10934 6.95744,65.13349 l -71.64684,0 0,-65.13349 z m 72.09093,0 40.11631,0 c 7.05659,20.10843 11.1663,42.07514 11.54639,65.13349 l -45.00132,0 c -0.22311,-22.95613 -2.50719,-44.87125 -6.66138,-65.13349 z m 47.81391,0 45.74147,0 c 8.22312,20.14391 12.87791,42.12441 13.32276,65.13349 l -48.10996,0 c -0.36286,-22.91183 -4.16305,-44.89526 -10.95427,-65.13349 z m -304.6471,72.23896 46.62966,0 c 0.36238,22.95967 4.30127,44.85513 11.1023,65.13349 l -44.4092,0 c -8.20393,-20.15425 -12.88146,-42.13052 -13.32276,-65.13349 z m 53.73513,0 44.70526,0 c 0.21932,22.95834 2.54333,44.86958 6.66138,65.13349 l -39.82025,0 c -7.05739,-20.10607 -11.16814,-42.07107 -11.54639,-65.13349 z m 51.81073,0 71.64684,0 0,65.13349 -64.83743,0 c -4.20151,-20.13591 -6.58203,-42.10935 -6.80941,-65.13349 z m 79.1964,0 71.64684,0 c -0.23116,23.02414 -2.71831,44.99758 -6.95744,65.13349 l -64.6894,0 0,-65.13349 z m 78.75231,0 45.00132,0 c -0.3799,23.05834 -4.4898,45.02505 -11.54639,65.13349 l -40.11631,0 c 4.15419,-20.26225 6.43822,-42.17737 6.66138,-65.13349 z m 52.1068,0 48.10996,0 c -0.43817,23.01955 -5.24687,44.97209 -13.47079,65.13349 l -45.74147,0 c 6.79283,-20.23852 10.73868,-42.22015 11.1023,-65.13349 z m -299.02194,72.23896 43.66905,0 c 8.21212,21.84989 19.87201,41.4194 34.19508,58.02802 l -35.97145,0 c -17.57851,-16.2343 -31.7923,-35.99419 -41.89268,-58.02802 z m 51.36664,0 38.636,0 c 3.76657,16.49748 8.66105,31.80016 14.65504,45.44541 1.91687,4.3638 3.95239,8.56219 6.06926,12.58261 l -22.94476,0 C 219.26975,587.15956 206.80197,567.4477 198.05196,545.32273 z m 45.88951,0 63.35712,0 0,58.02802 -41.59662,0 c -2.75493,-4.89311 -5.40844,-9.99508 -7.84562,-15.54322 -5.60011,-12.74854 -10.28659,-27.01823 -13.91488,-42.4848 z m 70.90668,0 63.20909,0 c -3.65685,15.46657 -8.31477,29.73626 -13.91488,42.4848 -2.4385,5.55117 -5.09187,10.65375 -7.84562,15.54322 l -41.44859,0 0,-58.02802 z m 70.4626,0 38.93206,0 c -8.74442,22.12246 -21.08018,41.83308 -36.26751,58.02802 l -23.38885,0 c 2.1217,-4.03089 4.14756,-8.20791 6.06926,-12.58261 5.99276,-13.64246 10.85891,-28.95186 14.65504,-45.44541 z m 46.77768,0 45.14936,0 c -10.12606,22.06888 -24.40654,41.78031 -42.04071,58.02802 l -37.30373,0 c 14.32075,-16.57906 25.96965,-36.22261 34.19508,-58.02802 z m -235.22071,65.13349 33.89902,0 c 17.41267,18.13728 38.28428,31.90286 61.28469,39.96828 -35.89864,-3.88594 -68.68106,-18.28788 -95.18371,-39.96828 z m 44.70526,0 19.8361,0 c 6.53998,11.11414 13.86955,20.69701 21.90854,28.27386 -15.213,-6.8629 -29.24441,-16.46997 -41.74464,-28.27386 z m 28.42188,0 37.30373,0 0,35.67539 c -13.65596,-6.24775 -26.40815,-18.57006 -37.30373,-35.67539 z m 44.85329,0 37.30373,0 c -10.85593,17.03745 -23.68386,29.26682 -37.30373,35.52736 l 0,-35.52736 z m 45.74148,0 20.2802,0 c -12.74215,12.03624 -27.08071,21.83019 -42.63283,28.71795 8.22453,-7.65084 15.68836,-17.37563 22.35263,-28.71795 z m 30.79037,0 35.52736,0 c -27.03802,22.08106 -60.54302,36.56608 -97.25614,40.11631 23.17355,-8.01379 44.17415,-21.90868 61.72878,-40.11631 z"
       id="path3743"
       inkscape:connector-curvature="0" />
  </g>
</svg>
